<svg width="30" height="31" viewBox="0 0 30 31" fill="none" xmlns="http://www.w3.org/2000/svg">
<path fill-rule="evenodd" clip-rule="evenodd" d="M15 0.606812C6.71573 0.606812 0 7.32254 0 15.6068C0 23.8911 6.71573 30.6068 15 30.6068C23.2843 30.6068 30 23.8911 30 15.6068C30 7.32254 23.2843 0.606812 15 0.606812ZM11.702 7.65523C12.5554 7.6164 12.828 7.6069 15.0007 7.6069H14.9982C17.1716 7.6069 17.4432 7.6164 18.2966 7.65523C19.1483 7.69423 19.7299 7.82907 20.2399 8.0269C20.7666 8.23107 21.2116 8.50441 21.6566 8.94941C22.1016 9.39408 22.375 9.84042 22.58 10.3666C22.7766 10.8753 22.9116 11.4566 22.9516 12.3083C22.99 13.1616 23 13.4343 23 15.607C23 17.7797 22.99 18.0517 22.9516 18.905C22.9116 19.7564 22.7766 20.3379 22.58 20.8467C22.375 21.3727 22.1016 21.819 21.6566 22.2637C21.2121 22.7087 20.7664 22.9827 20.2404 23.1871C19.7314 23.3849 19.1494 23.5197 18.2978 23.5587C17.4444 23.5976 17.1726 23.6071 14.9997 23.6071C12.8272 23.6071 12.5547 23.5976 11.7014 23.5587C10.8498 23.5197 10.2683 23.3849 9.75933 23.1871C9.23349 22.9827 8.78716 22.7087 8.34265 22.2637C7.89781 21.819 7.62448 21.3727 7.41997 20.8465C7.22231 20.3379 7.08747 19.7565 7.0483 18.9048C7.00964 18.0515 6.99997 17.7797 6.99997 15.607C6.99997 13.4343 7.00997 13.1615 7.04814 12.3081C7.08647 11.4568 7.22147 10.8753 7.41981 10.3664C7.62481 9.84042 7.89815 9.39408 8.34315 8.94941C8.78782 8.50458 9.23416 8.23124 9.76033 8.0269C10.269 7.82907 10.8503 7.69423 11.702 7.65523Z" fill="#6F6F6F"/>
<path fill-rule="evenodd" clip-rule="evenodd" d="M14.2831 9.04863C14.4224 9.04841 14.5723 9.04848 14.7341 9.04855L15.0008 9.04863C17.1368 9.04863 17.3899 9.0563 18.2335 9.09463C19.0135 9.1303 19.4368 9.26063 19.7188 9.37013C20.0921 9.51514 20.3583 9.68847 20.6381 9.96847C20.9181 10.2485 21.0915 10.5151 21.2368 10.8885C21.3463 11.1702 21.4768 11.5935 21.5123 12.3735C21.5507 13.2168 21.559 13.4702 21.559 15.6052C21.559 17.7402 21.5507 17.9936 21.5123 18.8369C21.4767 19.6169 21.3463 20.0402 21.2368 20.3219C21.0918 20.6953 20.9181 20.9611 20.6381 21.2409C20.3581 21.5209 20.0923 21.6943 19.7188 21.8393C19.4371 21.9493 19.0135 22.0793 18.2335 22.1149C17.3901 22.1533 17.1368 22.1616 15.0008 22.1616C12.8646 22.1616 12.6114 22.1533 11.7681 22.1149C10.988 22.0789 10.5647 21.9486 10.2825 21.8391C9.9092 21.6941 9.64253 21.5208 9.36253 21.2408C9.08253 20.9608 8.90919 20.6948 8.76386 20.3212C8.65435 20.0396 8.52385 19.6162 8.48835 18.8362C8.45002 17.9929 8.44235 17.7396 8.44235 15.6032C8.44235 13.4668 8.45002 13.2148 8.48835 12.3715C8.52402 11.5915 8.65435 11.1682 8.76386 10.8862C8.90886 10.5128 9.08253 10.2461 9.36253 9.96614C9.64253 9.68614 9.9092 9.5128 10.2825 9.36747C10.5645 9.25747 10.988 9.12747 11.7681 9.09163C12.5061 9.0583 12.7921 9.0483 14.2831 9.04663V9.04863ZM19.2712 10.3768C18.7411 10.3768 18.3111 10.8063 18.3111 11.3364C18.3111 11.8664 18.7411 12.2964 19.2712 12.2964C19.8012 12.2964 20.2312 11.8664 20.2312 11.3364C20.2312 10.8064 19.8012 10.3764 19.2712 10.3764V10.3768ZM10.8923 15.6068C10.8923 13.338 12.7317 11.4985 15.0005 11.4984C17.2693 11.4984 19.1084 13.338 19.1084 15.6068C19.1084 17.8757 17.2695 19.7144 15.0006 19.7144C12.7318 19.7144 10.8923 17.8757 10.8923 15.6068Z" fill="#6F6F6F"/>
<path fill-rule="evenodd" clip-rule="evenodd" d="M15.0007 12.9404C16.4734 12.9404 17.6674 14.1342 17.6674 15.6071C17.6674 17.0797 16.4734 18.2738 15.0007 18.2738C13.5279 18.2738 12.334 17.0797 12.334 15.6071C12.334 14.1342 13.5279 12.9404 15.0007 12.9404V12.9404Z" fill="#6F6F6F"/>
</svg>
